<svg width="1024" height="1024" viewBox="0 0 1024 1024" xmlns="http://www.w3.org/2000/svg">
  <defs>
    <linearGradient id="bg" x1="0" y1="0" x2="1" y2="1">
      <stop offset="0" stop-color="#3b82f6"/>
      <stop offset="1" stop-color="#1e40af"/>
    </linearGradient>
    <filter id="shadow" x="-20%" y="-20%" width="140%" height="140%">
      <feDropShadow dx="0" dy="14" stdDeviation="22" flood-color="#000000" flood-opacity="0.22"/>
    </filter>
  </defs>
  <rect x="100" y="100" width="824" height="824" rx="186" fill="url(#bg)" filter="url(#shadow)"/>
  <g stroke="#ffffff" stroke-width="32" fill="none" stroke-linecap="round" opacity="0.95">
    <path d="M 280 330 C 470 330 440 512 610 512"/>
    <path d="M 280 512 H 610"/>
    <path d="M 280 694 C 470 694 440 512 610 512"/>
  </g>
  <circle cx="276" cy="330" r="46" fill="#ffffff"/>
  <circle cx="276" cy="512" r="46" fill="#ffffff"/>
  <circle cx="276" cy="694" r="46" fill="#ffffff"/>
  <path d="M 606 400 h 84 l 38 42 h 128 q 26 0 26 26 v 130 q 0 26 -26 26 h -250 q -26 0 -26 -26 v -172 q 0 -26 26 -26 z" fill="#ffffff"/>
</svg>
